<svg width="25" height="19" viewBox="0 0 25 19" fill="none" xmlns="http://www.w3.org/2000/svg">
<path d="M24.2188 2.34669C23.3396 2.7287 22.4094 2.98037 21.4575 3.09376C22.4578 2.50801 23.2101 1.57743 23.5732 0.476571C22.6275 1.02959 21.5945 1.41762 20.5186 1.62403C20.0655 1.14919 19.5206 0.771446 18.917 0.513751C18.3133 0.256056 17.6636 0.123795 17.0073 0.125008C14.3501 0.125008 12.1997 2.24415 12.1997 4.85645C12.1978 5.21981 12.2395 5.58209 12.3237 5.93555C10.4183 5.84623 8.5525 5.36016 6.84569 4.50843C5.13889 3.65671 3.62865 2.45809 2.41162 0.989266C1.98466 1.70905 1.75885 2.5303 1.75781 3.3672C1.75781 5.00782 2.61377 6.45802 3.90625 7.30763C3.14049 7.28945 2.39043 7.08678 1.71973 6.7168V6.7754C1.71973 9.07032 3.37988 10.9795 5.57715 11.4141C5.16396 11.5242 4.73817 11.58 4.31055 11.5801C4.00712 11.5806 3.70438 11.5512 3.40674 11.4922C4.01758 13.3721 5.79541 14.7393 7.90137 14.7783C6.19013 16.0971 4.08917 16.8099 1.92871 16.8047C1.54522 16.8041 1.16209 16.7813 0.78125 16.7363C2.97909 18.1398 5.53391 18.8821 8.1416 18.875C16.9971 18.875 21.835 11.6631 21.835 5.40821C21.835 5.20313 21.8296 4.99805 21.8198 4.79786C22.7588 4.12992 23.5712 3.29987 24.2188 2.34669Z" fill="white"/>
</svg>
